<svg width="14" height="14" viewBox="0 0 14 14" fill="none" xmlns="http://www.w3.org/2000/svg">
<g clip-path="url(#clip0_900_1352)">
<path d="M9.40335 5.51081V5.49136C9.40335 4.3247 8.49335 3.46914 7.11668 3.46914C6.69526 3.46218 6.27748 3.54812 5.89303 3.72085C5.50857 3.89359 5.16688 4.14888 4.89224 4.46859C4.85408 4.50395 4.82341 4.5466 4.80203 4.59403C4.78066 4.64146 4.76901 4.69269 4.76779 4.7447C4.76777 4.79268 4.77739 4.84018 4.7961 4.88436C4.8148 4.92855 4.8422 4.96852 4.87667 5.0019C4.91114 5.03528 4.95197 5.06139 4.99673 5.07866C5.0415 5.09594 5.08928 5.10404 5.13724 5.10248C5.23997 5.09993 5.33821 5.0598 5.41335 4.9897C5.62119 4.74613 5.87934 4.55048 6.17003 4.41621C6.46072 4.28195 6.77704 4.21225 7.09724 4.21192C8.01501 4.21192 8.58668 4.80303 8.58668 5.53803V5.55748C8.58668 6.41692 7.90224 6.89525 6.82113 6.97692C6.77735 6.97861 6.73442 6.98953 6.69516 7.00895C6.65589 7.02838 6.62117 7.05588 6.59327 7.08966C6.56537 7.12343 6.54492 7.16272 6.53325 7.20495C6.52158 7.24717 6.51897 7.29139 6.52557 7.3347C6.52557 7.3347 6.52557 8.23692 6.52557 8.40414C6.53524 8.5004 6.58045 8.5896 6.65236 8.65432C6.72427 8.71904 6.81772 8.75463 6.91446 8.75414H6.95724C7.05349 8.74447 7.14269 8.69926 7.20741 8.62735C7.27213 8.55545 7.30772 8.462 7.30724 8.36525V7.56414C8.45835 7.38914 9.40335 6.78636 9.40335 5.51081Z" fill="#5B5B5B"/>
<path d="M6.91446 10.6753C7.18293 10.6753 7.40057 10.4577 7.40057 10.1892C7.40057 9.92076 7.18293 9.70312 6.91446 9.70312C6.64598 9.70312 6.42834 9.92076 6.42834 10.1892C6.42834 10.4577 6.64598 10.6753 6.91446 10.6753Z" fill="#5B5B5B"/>
<path d="M12.88 4.98191C12.6437 5.09016 12.3938 5.16603 12.1372 5.20747C12.5476 6.37585 12.5489 7.64898 12.141 8.8182C11.733 9.98743 10.9399 10.9834 9.89178 11.6429C8.84362 12.3023 7.60253 12.5862 6.37192 12.4479C5.14131 12.3096 3.99418 11.7574 3.11853 10.8817C2.24288 10.0061 1.69066 8.85893 1.55237 7.62832C1.41408 6.39771 1.69793 5.15662 2.35739 4.10847C3.01686 3.06031 4.01282 2.26726 5.18204 1.85929C6.35127 1.45132 7.6244 1.45264 8.79278 1.86302C8.83426 1.60642 8.91013 1.35658 9.01833 1.12024C7.683 0.658521 6.23057 0.663215 4.89825 1.13356C3.56593 1.60391 2.43246 2.51211 1.68296 3.70984C0.933455 4.90756 0.612218 6.32404 0.77171 7.72791C0.931201 9.13179 1.562 10.4401 2.56107 11.4392C3.56015 12.4382 4.86846 13.069 6.27234 13.2285C7.67621 13.388 9.09268 13.0668 10.2904 12.3173C11.4881 11.5678 12.3963 10.4343 12.8667 9.102C13.337 7.76968 13.3417 6.31724 12.88 4.98191Z" fill="#5B5B5B"/>
<path d="M11.6667 4.27756C12.7406 4.27756 13.6111 3.407 13.6111 2.33312C13.6111 1.25923 12.7406 0.388672 11.6667 0.388672C10.5928 0.388672 9.72223 1.25923 9.72223 2.33312C9.72223 3.407 10.5928 4.27756 11.6667 4.27756Z" fill="#5B5B5B"/>
</g>
<defs>
<clipPath id="clip0_900_1352">
<rect width="14" height="14" fill="white"/>
</clipPath>
</defs>
</svg>
