<svg width="6" height="9" viewBox="0 0 6 9" fill="none" xmlns="http://www.w3.org/2000/svg">
<path d="M4.64379 8.87481C4.55042 8.87512 4.45816 8.85452 4.3738 8.8145C4.28944 8.77448 4.21512 8.71607 4.15629 8.64356L1.13754 4.89356C1.04562 4.78172 0.995361 4.64145 0.995361 4.49668C0.995361 4.35192 1.04562 4.21164 1.13754 4.09981L4.26254 0.349806C4.36863 0.222171 4.52107 0.141905 4.68634 0.126668C4.85161 0.111431 5.01616 0.162469 5.14379 0.268556C5.27143 0.374643 5.35169 0.527087 5.36693 0.692354C5.38217 0.85762 5.33113 1.02217 5.22504 1.14981L2.43129 4.49981L5.13129 7.84981C5.20772 7.94155 5.25627 8.05326 5.27119 8.17173C5.28612 8.2902 5.26679 8.41046 5.21551 8.51829C5.16422 8.62612 5.08312 8.717 4.9818 8.78018C4.88049 8.84336 4.76319 8.8762 4.64379 8.87481Z" fill="black"/>
</svg>
