<svg width="25" height="21" viewBox="0 0 25 21" fill="none" xmlns="http://www.w3.org/2000/svg">
<path d="M12.5 16.51C12.5001 16.1635 12.5861 15.8231 12.7494 15.5231C12.9128 15.223 13.1477 14.9737 13.4306 14.8002L23.6895 8.5146C23.7839 8.45675 23.8623 8.37358 23.9168 8.27346C23.9713 8.17333 24 8.05977 24 7.94417C24 7.82858 23.9713 7.71501 23.9168 7.61489C23.8623 7.51476 23.7839 7.4316 23.6895 7.37375L13.4306 1.08811C13.3364 1.03041 13.2294 1.00003 13.1206 1C13.0117 0.999971 12.9048 1.0303 12.8105 1.08794C12.7162 1.14558 12.6379 1.22851 12.5834 1.32839C12.5289 1.42827 12.5001 1.54159 12.5 1.65697M12.5 16.51V19.343M12.5 16.51C12.4999 16.1635 12.4139 15.8231 12.2506 15.5231C12.0872 15.223 11.8523 14.9737 11.5694 14.8002L1.31051 8.5146C1.21609 8.45675 1.1377 8.37358 1.08319 8.27346C1.02869 8.17333 1 8.05977 1 7.94417C1 7.82858 1.02869 7.71501 1.08319 7.61489C1.1377 7.51476 1.21609 7.4316 1.31051 7.37375L11.5694 1.08811C11.6636 1.03041 11.7706 1.00003 11.8794 1C11.9883 0.999971 12.0952 1.0303 12.1895 1.08794C12.2838 1.14558 12.3621 1.22851 12.4166 1.32839C12.4711 1.42827 12.4999 1.54159 12.5 1.65697M12.5 19.343C12.5001 19.4584 12.5289 19.5717 12.5834 19.6716C12.6379 19.7715 12.7162 19.8544 12.8105 19.9121C12.9048 19.9697 13.0117 20 13.1206 20C13.2294 20 13.3364 19.9696 13.4306 19.9119L17.7182 17.2851C18.0012 17.1117 18.2363 16.8625 18.3997 16.5624C18.5632 16.2623 18.6493 15.9219 18.6494 15.5754V12.6792C18.6494 12.3326 18.5634 11.992 18.3999 11.6918C18.2364 11.3916 18.0013 11.1423 17.7182 10.9688L13.4306 8.34207C13.1475 8.16851 12.9125 7.91904 12.7491 7.61871C12.5858 7.31838 12.4998 6.97777 12.5 6.6311M12.5 19.343C12.4999 19.4584 12.4711 19.5717 12.4166 19.6716C12.3621 19.7715 12.2838 19.8544 12.1895 19.9121C12.0952 19.9697 11.9883 20 11.8794 20C11.7706 20 11.6636 19.9696 11.5694 19.9119L7.28181 17.2851C6.99876 17.1117 6.7637 16.8625 6.60025 16.5624C6.4368 16.2623 6.35069 15.9219 6.35058 15.5754V12.6792C6.35059 12.3326 6.43665 11.992 6.6001 11.6918C6.76356 11.3916 6.99867 11.1423 7.28181 10.9688L11.5694 8.34207C11.8525 8.16851 12.0875 7.91904 12.2509 7.61871C12.4142 7.31838 12.5002 6.97777 12.5 6.6311M12.5 6.6311V1.65697" stroke="#6D6D6D" stroke-linecap="round" stroke-linejoin="round"/>
</svg>
