<svg width="14" height="14" viewBox="0 0 14 14" fill="none" xmlns="http://www.w3.org/2000/svg">
<g clip-path="url(#clip0_901_1427)">
<path d="M1.16667 3.50033H0V6.41699H0.00583333L0 11.667C0 12.3087 0.525 12.8337 1.16667 12.8337H11.6667V11.667H1.16667V3.50033ZM4.08333 8.75033H12.25L10.2083 6.12533L8.75 7.88116L6.70833 5.25033L4.08333 8.75033ZM12.8333 2.33366H8.16667L7 1.16699H3.5C2.85833 1.16699 2.33917 1.69199 2.33917 2.33366L2.33333 9.33366C2.33333 9.97533 2.85833 10.5003 3.5 10.5003H12.8333C13.475 10.5003 14 9.97533 14 9.33366V3.50033C14 2.85866 13.475 2.33366 12.8333 2.33366ZM12.8333 9.33366H3.5V2.33366H6.51583L7.33833 3.15616L7.6825 3.50033H12.8333V9.33366Z" fill="#5B5B5B"/>
</g>
<defs>
<clipPath id="clip0_901_1427">
<rect width="14" height="14" fill="white"/>
</clipPath>
</defs>
</svg>
