<svg width="14" height="14" viewBox="0 0 14 14" fill="none" xmlns="http://www.w3.org/2000/svg">
<path d="M11.375 0.875H2.625C2.38301 0.875 2.1875 1.07051 2.1875 1.3125V12.6875C2.1875 12.9295 2.38301 13.125 2.625 13.125H11.375C11.617 13.125 11.8125 12.9295 11.8125 12.6875V1.3125C11.8125 1.07051 11.617 0.875 11.375 0.875ZM7.82031 1.85938H9.13281V4.7291L8.49707 4.26562L7.82031 4.74961V1.85938ZM10.8281 12.1406H3.17188V1.85938H7V5.91855C7 5.96367 7.01367 6.00879 7.04102 6.0457C7.05761 6.06917 7.0787 6.08911 7.10306 6.10437C7.12741 6.11963 7.15455 6.12991 7.1829 6.13461C7.21125 6.13932 7.24026 6.13835 7.26824 6.13177C7.29622 6.1252 7.32261 6.11313 7.3459 6.09629L8.4916 5.27734L9.60449 6.08945C9.64141 6.1168 9.68652 6.13184 9.73301 6.13184C9.85332 6.13184 9.95176 6.0334 9.95176 5.91309V1.85938H10.8268V12.1406H10.8281Z" fill="#5B5B5B"/>
</svg>
