<svg width="14" height="14" viewBox="0 0 14 14" fill="none" xmlns="http://www.w3.org/2000/svg">
<g clip-path="url(#clip0_900_1311)">
<path d="M7 2.45352C7.10314 2.45352 7.20206 2.41254 7.27499 2.33961C7.34792 2.26668 7.38889 2.16777 7.38889 2.06463V0.742404C7.38889 0.639265 7.34792 0.540349 7.27499 0.467419C7.20206 0.394488 7.10314 0.353516 7 0.353516C6.89686 0.353516 6.79795 0.394488 6.72502 0.467419C6.65209 0.540349 6.61111 0.639265 6.61111 0.742404V2.06463C6.61111 2.16777 6.65209 2.26668 6.72502 2.33961C6.79795 2.41254 6.89686 2.45352 7 2.45352Z" fill="#5B5B5B"/>
<path d="M7 11.5459C6.89686 11.5459 6.79795 11.5869 6.72502 11.6598C6.65209 11.7327 6.61111 11.8316 6.61111 11.9348V13.257C6.61111 13.3601 6.65209 13.4591 6.72502 13.532C6.79795 13.6049 6.89686 13.6459 7 13.6459C7.10314 13.6459 7.20206 13.6049 7.27499 13.532C7.34792 13.4591 7.38889 13.3601 7.38889 13.257V11.9348C7.38889 11.8316 7.34792 11.7327 7.27499 11.6598C7.20206 11.5869 7.10314 11.5459 7 11.5459Z" fill="#5B5B5B"/>
<path d="M3.23555 3.78805C3.30787 3.85378 3.40228 3.88988 3.5 3.88916C3.55118 3.88946 3.60191 3.87965 3.6493 3.8603C3.69668 3.84094 3.73977 3.81243 3.77611 3.77638C3.81256 3.74023 3.84149 3.69722 3.86123 3.64983C3.88098 3.60244 3.89114 3.55161 3.89114 3.50027C3.89114 3.44894 3.88098 3.39811 3.86123 3.35072C3.84149 3.30333 3.81256 3.26031 3.77611 3.22416L2.85055 2.3025C2.77616 2.23879 2.68046 2.20549 2.58259 2.20927C2.48472 2.21305 2.39187 2.25363 2.32261 2.32289C2.25335 2.39215 2.21278 2.48499 2.209 2.58286C2.20522 2.68074 2.23851 2.77643 2.30222 2.85083L3.23555 3.78805Z" fill="#5B5B5B"/>
<path d="M10.7644 10.212C10.7282 10.1758 10.6851 10.147 10.6378 10.1274C10.5904 10.1078 10.5396 10.0977 10.4883 10.0977C10.437 10.0977 10.3863 10.1078 10.3389 10.1274C10.2915 10.147 10.2485 10.1758 10.2122 10.212C10.1759 10.2483 10.1472 10.2913 10.1276 10.3387C10.1079 10.3861 10.0978 10.4369 10.0978 10.4881C10.0978 10.5394 10.1079 10.5902 10.1276 10.6376C10.1472 10.6849 10.1759 10.728 10.2122 10.7642L11.1494 11.6976C11.1854 11.7343 11.2284 11.7636 11.2758 11.7836C11.3232 11.8036 11.3741 11.814 11.4255 11.8142C11.5281 11.8128 11.626 11.7709 11.6978 11.6976C11.7702 11.6247 11.8108 11.5262 11.8108 11.4234C11.8108 11.3207 11.7702 11.2221 11.6978 11.1492L10.7644 10.212Z" fill="#5B5B5B"/>
<path d="M2.45388 7.00022C2.45388 6.89708 2.41291 6.79816 2.33998 6.72523C2.26705 6.6523 2.16813 6.61133 2.06499 6.61133H0.742771C0.639631 6.61133 0.540716 6.6523 0.467785 6.72523C0.394854 6.79816 0.353882 6.89708 0.353882 7.00022C0.353882 7.10336 0.394854 7.20227 0.467785 7.2752C0.540716 7.34813 0.639631 7.38911 0.742771 7.38911H2.06499C2.16813 7.38911 2.26705 7.34813 2.33998 7.2752C2.41291 7.20227 2.45388 7.10336 2.45388 7.00022Z" fill="#5B5B5B"/>
<path d="M13.2572 6.61133H11.935C11.8319 6.61133 11.7329 6.6523 11.66 6.72523C11.5871 6.79816 11.5461 6.89708 11.5461 7.00022C11.5461 7.10336 11.5871 7.20227 11.66 7.2752C11.7329 7.34813 11.8319 7.38911 11.935 7.38911H13.2572C13.3604 7.38911 13.4593 7.34813 13.5322 7.2752C13.6051 7.20227 13.6461 7.10336 13.6461 7.00022C13.6461 6.89708 13.6051 6.79816 13.5322 6.72523C13.4593 6.6523 13.3604 6.61133 13.2572 6.61133Z" fill="#5B5B5B"/>
<path d="M3.23556 10.212L2.30223 11.1492C2.24762 11.2034 2.2103 11.2725 2.19498 11.3479C2.17967 11.4233 2.18704 11.5015 2.21618 11.5727C2.24532 11.6439 2.29491 11.7048 2.35868 11.7478C2.42245 11.7908 2.49754 11.8139 2.57445 11.8142C2.62591 11.814 2.6768 11.8036 2.7242 11.7836C2.7716 11.7636 2.81455 11.7343 2.85056 11.6976L3.78779 10.7642C3.86102 10.691 3.90216 10.5917 3.90216 10.4881C3.90216 10.3846 3.86102 10.2853 3.78779 10.212C3.71456 10.1388 3.61524 10.0977 3.51168 10.0977C3.40811 10.0977 3.30879 10.1388 3.23556 10.212Z" fill="#5B5B5B"/>
<path d="M10.5 3.88915C10.5512 3.88945 10.6019 3.87964 10.6493 3.86029C10.6967 3.84093 10.7398 3.81242 10.7761 3.77638L11.7094 2.83915C11.7819 2.76629 11.8225 2.66773 11.8225 2.56499C11.8225 2.46225 11.7819 2.36368 11.7094 2.29082C11.6366 2.21839 11.538 2.17773 11.4353 2.17773C11.3325 2.17773 11.234 2.21839 11.1611 2.29082L10.2239 3.22415C10.1874 3.26031 10.1585 3.30332 10.1388 3.35071C10.119 3.3981 10.1089 3.44893 10.1089 3.50026C10.1089 3.5516 10.119 3.60243 10.1388 3.64982C10.1585 3.69721 10.1874 3.74022 10.2239 3.77638C10.2602 3.81242 10.3033 3.84093 10.3507 3.86029C10.3981 3.87964 10.4488 3.88945 10.5 3.88915Z" fill="#5B5B5B"/>
<path d="M7.05055 3.014C6.26932 3.00397 5.50276 3.22646 4.84831 3.6532C4.19385 4.07993 3.68107 4.69162 3.37513 5.41052C3.0692 6.12942 2.98393 6.92305 3.13018 7.69053C3.27643 8.45801 3.64758 9.16467 4.19645 9.72068C4.74533 10.2767 5.44714 10.6569 6.21266 10.8131C6.97819 10.9692 7.77285 10.8942 8.49564 10.5976C9.21843 10.301 9.8367 9.79613 10.2718 9.14724C10.707 8.49835 10.9394 7.73473 10.9394 6.95344C10.9446 5.9158 10.5382 4.91843 9.80919 4.17997C9.08021 3.44152 8.08817 3.02222 7.05055 3.014ZM7.05055 10.1112C6.42301 10.1213 5.80668 9.94429 5.28005 9.60287C4.75343 9.26144 4.34033 8.77101 4.09337 8.19402C3.84642 7.61702 3.77677 6.97959 3.89331 6.36288C4.00985 5.74618 4.3073 5.17811 4.74778 4.73102C5.18826 4.28394 5.75183 3.97807 6.36673 3.85236C6.98164 3.72665 7.62004 3.7868 8.20064 4.02514C8.78125 4.26348 9.27778 4.66922 9.62701 5.19071C9.97623 5.7122 10.1624 6.32582 10.1617 6.95344C10.1658 7.78414 9.84085 8.58268 9.25784 9.17444C8.67483 9.76619 7.88122 10.103 7.05055 10.1112Z" fill="#5B5B5B"/>
</g>
<defs>
<clipPath id="clip0_900_1311">
<rect width="14" height="14" fill="white"/>
</clipPath>
</defs>
</svg>
