<svg width="15" height="15" viewBox="0 0 15 15" fill="none" xmlns="http://www.w3.org/2000/svg">
<path d="M14.0625 11.25H12.1875V9.375H11.25V11.25H9.375V12.1875H11.25V14.0625H12.1875V12.1875H14.0625V11.25Z" fill="#818181"/>
<path d="M7.5 13.1252H3.75V1.87516H7.5V4.68766C7.50074 4.93607 7.59975 5.1741 7.77541 5.34975C7.95106 5.52541 8.18909 5.62442 8.4375 5.62516H11.25V7.50016H12.1875V4.68766C12.1892 4.62605 12.1774 4.56482 12.1532 4.50818C12.1289 4.45153 12.0926 4.40082 12.0469 4.35953L8.76563 1.07828C8.72436 1.03251 8.67365 0.99623 8.617 0.971952C8.56035 0.947674 8.49911 0.935974 8.4375 0.937659H3.75C3.50159 0.938401 3.26356 1.03741 3.08791 1.21307C2.91225 1.38872 2.81324 1.62675 2.8125 1.87516V13.1252C2.81324 13.3736 2.91225 13.6116 3.08791 13.7873C3.26356 13.9629 3.50159 14.0619 3.75 14.0627H7.5V13.1252ZM8.4375 2.06266L11.0625 4.68766H8.4375V2.06266Z" fill="#818181"/>
</svg>
