<svg width="14" height="14" viewBox="0 0 14 14" fill="none" xmlns="http://www.w3.org/2000/svg">
<path d="M1.75 1.16699H2.91667V2.33366H4.08333V3.50033H2.91667V11.667H11.0833V3.50033H9.91667V2.33366H11.0833V1.16699H12.25V12.8337H1.75V1.16699ZM8.75 2.33366V1.16699H9.91667V2.33366H8.75ZM7.58333 2.33366H8.75V3.50033H7.58333V2.33366ZM6.41667 2.33366V1.16699H7.58333V2.33366H6.41667ZM5.25 2.33366H6.41667V3.50033H5.25V2.33366ZM5.25 2.33366V1.16699H4.08333V2.33366H5.25ZM9.91667 4.66699H4.08333V5.83366H9.91667V4.66699ZM4.08333 7.00033H9.91667V8.16699H4.08333V7.00033ZM9.91667 10.5003V9.33366H7.58333V10.5003H9.91667Z" fill="#5B5B5B"/>
</svg>
