<svg width="14" height="14" viewBox="0 0 14 14" fill="none" xmlns="http://www.w3.org/2000/svg">
<path d="M11.0833 8.16634V10.4997H9.91667V8.16634H11.0833ZM4.08333 8.16634V10.4997H3.5C3.17917 10.4997 2.91667 10.2372 2.91667 9.91634V8.16634H4.08333ZM7 0.583008C5.60761 0.583008 4.27226 1.13613 3.28769 2.1207C2.30312 3.10526 1.75 4.44062 1.75 5.83301V9.91634C1.75 10.8847 2.53167 11.6663 3.5 11.6663H5.25V6.99967H2.91667V5.83301C2.91667 3.57551 4.7425 1.74967 7 1.74967C9.2575 1.74967 11.0833 3.57551 11.0833 5.83301V6.99967H8.75V11.6663H11.0833V12.2497H7V13.4163H10.5C11.4683 13.4163 12.25 12.6347 12.25 11.6663V5.83301C12.25 4.44062 11.6969 3.10526 10.7123 2.1207C9.72774 1.13613 8.39239 0.583008 7 0.583008Z" fill="#5B5B5B"/>
</svg>
