<svg width="16" height="19" viewBox="0 0 16 19" fill="none" xmlns="http://www.w3.org/2000/svg">
<path d="M0.293 7.45532L7.293 0.299312C7.48053 0.107662 7.73484 0 8 0C8.26516 0 8.51947 0.107662 8.707 0.299312L15.707 7.45532C15.8946 7.64699 15.9999 7.90697 16 8.17807V17.9777C16 18.2488 15.8946 18.5089 15.7071 18.7006C15.5196 18.8923 15.2652 19 15 19H10V11.844H6V19H1C0.734784 19 0.48043 18.8923 0.292893 18.7006C0.105357 18.5089 0 18.2488 0 17.9777V8.17807C5.66374e-05 7.90697 0.105451 7.64699 0.293 7.45532Z" fill="#237FD5"/>
</svg>
