<svg width="19" height="19" viewBox="0 0 19 19" fill="none" xmlns="http://www.w3.org/2000/svg">
<path d="M2.375 4.15625V13.6562C2.375 13.9712 2.50011 14.2732 2.72281 14.4959C2.94551 14.7186 3.24756 14.8438 3.5625 14.8438H15.4375C15.7524 14.8438 16.0545 14.7186 16.2772 14.4959C16.4999 14.2732 16.625 13.9712 16.625 13.6562V4.15625H2.375ZM2.375 2.96875H16.625C16.9399 2.96875 17.242 3.09386 17.4647 3.31656C17.6874 3.53926 17.8125 3.84131 17.8125 4.15625V13.6562C17.8125 14.2861 17.5623 14.8902 17.1169 15.3356C16.6715 15.781 16.0674 16.0312 15.4375 16.0312H3.5625C2.93261 16.0312 2.32852 15.781 1.88312 15.3356C1.43772 14.8902 1.1875 14.2861 1.1875 13.6562V4.15625C1.1875 3.84131 1.31261 3.53926 1.53531 3.31656C1.75801 3.09386 2.06006 2.96875 2.375 2.96875Z" fill="#6D6D6D"/>
<path d="M16.7734 4.15625L12.1814 9.405C11.847 9.78725 11.4348 10.0936 10.9723 10.3035C10.5098 10.5134 10.0079 10.6219 9.5 10.6219C8.99214 10.6219 8.49015 10.5134 8.0277 10.3035C7.56524 10.0936 7.153 9.78725 6.81862 9.405L2.22656 4.15625H16.7734ZM3.80475 4.15625L7.71163 8.62244C7.93454 8.87734 8.20939 9.08162 8.51773 9.22158C8.82608 9.36155 9.16078 9.43396 9.49941 9.43396C9.83803 9.43396 10.1727 9.36155 10.4811 9.22158C10.7894 9.08162 11.0643 8.87734 11.2872 8.62244L15.1952 4.15625H3.80475Z" fill="#6D6D6D"/>
</svg>
