<svg width="14" height="14" viewBox="0 0 14 14" fill="none" xmlns="http://www.w3.org/2000/svg">
<g clip-path="url(#clip0_900_1335)">
<path d="M9.87389 9.89767C9.78768 9.84176 9.68285 9.82223 9.58229 9.84336C9.48174 9.86449 9.39363 9.92456 9.33722 10.0104C8.78889 10.8504 7.78167 11.881 6.88333 12.2271C5.985 12.5732 5.28111 12.4488 5.00111 12.2271C4.88055 12.1221 4.56555 11.8382 4.83389 10.8699C5.01278 10.2243 6.125 7.18322 6.38944 6.44434L5.54167 6.55323C5.27333 7.27656 4.26222 9.991 4.07944 10.6677C3.815 11.636 3.94722 12.3399 4.50333 12.8299C4.8919 13.1025 5.35901 13.2405 5.83333 13.2227C6.29358 13.216 6.74856 13.1237 7.175 12.9504C8.26 12.5266 9.39944 11.3482 9.99833 10.4343C10.0255 10.391 10.0438 10.3426 10.0522 10.2922C10.0607 10.2417 10.0591 10.19 10.0475 10.1402C10.036 10.0903 10.0147 10.0432 9.98488 10.0016C9.95508 9.96 9.91736 9.92468 9.87389 9.89767Z" fill="#5B5B5B"/>
<path d="M7.50555 4.27734C7.85167 4.27734 8.19002 4.17471 8.4778 3.98242C8.76559 3.79012 8.98989 3.51681 9.12234 3.19704C9.2548 2.87727 9.28945 2.5254 9.22193 2.18594C9.1544 1.84647 8.98773 1.53465 8.74299 1.28991C8.49825 1.04517 8.18643 0.878494 7.84696 0.81097C7.5075 0.743446 7.15563 0.778102 6.83586 0.910555C6.51609 1.04301 6.24277 1.26731 6.05048 1.5551C5.85819 1.84288 5.75555 2.18123 5.75555 2.52734C5.75555 2.99147 5.93993 3.43659 6.26812 3.76478C6.59631 4.09297 7.04142 4.27734 7.50555 4.27734ZM7.50555 1.55512C7.69784 1.55512 7.88581 1.61214 8.04569 1.71897C8.20557 1.8258 8.33019 1.97764 8.40377 2.15529C8.47736 2.33294 8.49661 2.52842 8.4591 2.71702C8.42158 2.90561 8.32899 3.07884 8.19302 3.21481C8.05705 3.35078 7.88382 3.44337 7.69523 3.48089C7.50663 3.5184 7.31115 3.49915 7.1335 3.42556C6.95585 3.35198 6.80401 3.22736 6.69718 3.06748C6.59035 2.9076 6.53333 2.71963 6.53333 2.52734C6.53333 2.2695 6.63576 2.02221 6.81809 1.83988C7.00042 1.65755 7.2477 1.55512 7.50555 1.55512Z" fill="#5B5B5B"/>
<path d="M4.59279 5.83304C4.61612 5.83304 7.03112 5.51415 7.5989 5.44415C7.85168 5.40526 8.04224 5.44415 8.10446 5.50248C8.16668 5.56082 8.18612 5.81359 8.07724 6.15582C7.84001 6.87915 6.64224 10.4336 6.29224 11.4875C6.46331 11.4524 6.63112 11.403 6.7939 11.3397C6.94959 11.2753 7.09925 11.1972 7.24112 11.1064C7.71946 9.72193 8.6139 7.03859 8.81612 6.42415C9.01835 5.8097 8.96779 5.34304 8.69946 5.02415C8.54638 4.86894 8.35477 4.75725 8.14429 4.70053C7.9338 4.64381 7.71202 4.6441 7.50168 4.70137C6.94557 4.7597 4.59668 5.06693 4.49557 5.09026C4.39243 5.10367 4.29884 5.1575 4.23539 5.23991C4.17194 5.32232 4.14383 5.42656 4.15724 5.5297C4.17064 5.63284 4.22447 5.72643 4.30689 5.78988C4.3893 5.85333 4.49354 5.88145 4.59668 5.86804L4.59279 5.83304Z" fill="#5B5B5B"/>
</g>
<defs>
<clipPath id="clip0_900_1335">
<rect width="14" height="14" fill="white"/>
</clipPath>
</defs>
</svg>
