<svg width="15" height="15" viewBox="0 0 15 15" fill="none" xmlns="http://www.w3.org/2000/svg">
<g clip-path="url(#clip0_788_1182)">
<path d="M11.6667 12.5H2.50001V3.33333H8.00834L8.84167 2.5H2.50001C2.27899 2.5 2.06703 2.5878 1.91075 2.74408C1.75447 2.90036 1.66667 3.11232 1.66667 3.33333V12.5C1.66667 12.721 1.75447 12.933 1.91075 13.0893C2.06703 13.2455 2.27899 13.3333 2.50001 13.3333H11.6667C11.8877 13.3333 12.0996 13.2455 12.2559 13.0893C12.4122 12.933 12.5 12.721 12.5 12.5V6.25L11.6667 7.08333V12.5Z" fill="#818181"/>
<path d="M13.9708 2.43333L12.5667 1.02916C12.5044 0.966677 12.4303 0.917099 12.3488 0.883271C12.2673 0.849444 12.1799 0.832031 12.0917 0.832031C12.0034 0.832031 11.916 0.849444 11.8345 0.883271C11.753 0.917099 11.679 0.966677 11.6167 1.02916L5.90417 6.775L5.44167 8.77916C5.42197 8.87631 5.42404 8.97662 5.44773 9.07288C5.47143 9.16913 5.51617 9.25893 5.57872 9.33583C5.64128 9.41273 5.72009 9.47481 5.80951 9.5176C5.89892 9.5604 5.99671 9.58285 6.09584 9.58333C6.14707 9.58897 6.19877 9.58897 6.25 9.58333L8.27084 9.1375L13.9708 3.38333C14.0333 3.32101 14.0829 3.24698 14.1167 3.16547C14.1506 3.08396 14.168 2.99658 14.168 2.90833C14.168 2.82008 14.1506 2.7327 14.1167 2.65119C14.0829 2.56968 14.0333 2.49565 13.9708 2.43333ZM7.8375 8.36666L6.3125 8.70416L6.66667 7.19166L10.9667 2.8625L12.1417 4.0375L7.8375 8.36666ZM12.6125 3.56666L11.4375 2.39166L12.0833 1.73333L13.2667 2.91666L12.6125 3.56666Z" fill="#818181"/>
</g>
<defs>
<clipPath id="clip0_788_1182">
<rect width="15" height="15" fill="white"/>
</clipPath>
</defs>
</svg>
