<svg width="19" height="19" viewBox="0 0 19 19" fill="none" xmlns="http://www.w3.org/2000/svg">
<g clip-path="url(#clip0_431_1010)">
<path d="M17.1581 14.6883C16.6491 14.2346 16.2035 13.7144 15.8333 13.1419C15.4292 12.3516 15.1869 11.4885 15.1208 10.6033V7.99604C15.1243 6.60567 14.62 5.26187 13.7026 4.21714C12.7851 3.1724 11.5178 2.49863 10.1386 2.32243V1.6416C10.1386 1.45473 10.0644 1.27551 9.93225 1.14338C9.80011 1.01124 9.6209 0.937012 9.43403 0.937012C9.24716 0.937012 9.06795 1.01124 8.93582 1.14338C8.80368 1.27551 8.72945 1.45473 8.72945 1.6416V2.33298C7.36264 2.52189 6.1106 3.19973 5.20523 4.24096C4.29985 5.28218 3.8025 6.61624 3.80528 7.99604V10.6033C3.73918 11.4885 3.49694 12.3516 3.09278 13.1419C2.72908 13.7131 2.29066 14.2332 1.78917 14.6883C1.73287 14.7377 1.68775 14.7986 1.65681 14.8669C1.62587 14.9351 1.60982 15.0092 1.60973 15.0841V15.8019C1.60973 15.9418 1.66533 16.0761 1.76431 16.1751C1.86329 16.274 1.99753 16.3297 2.1375 16.3297H16.8097C16.9497 16.3297 17.0839 16.274 17.1829 16.1751C17.2819 16.0761 17.3375 15.9418 17.3375 15.8019V15.0841C17.3374 15.0092 17.3214 14.9351 17.2904 14.8669C17.2595 14.7986 17.2144 14.7377 17.1581 14.6883ZM2.7075 15.2741C3.19855 14.7997 3.6309 14.2682 3.99528 13.6908C4.50438 12.7363 4.80143 11.6831 4.86611 10.6033V7.99604C4.84518 7.3775 4.94894 6.76108 5.17119 6.18348C5.39345 5.60587 5.72967 5.0789 6.15983 4.63394C6.58999 4.18898 7.10529 3.83513 7.67504 3.59346C8.2448 3.3518 8.85736 3.22725 9.47625 3.22725C10.0951 3.22725 10.7077 3.3518 11.2775 3.59346C11.8472 3.83513 12.3625 4.18898 12.7927 4.63394C13.2228 5.0789 13.5591 5.60587 13.7813 6.18348C14.0036 6.76108 14.1073 7.3775 14.0864 7.99604V10.6033C14.1511 11.6831 14.4481 12.7363 14.9572 13.6908C15.3216 14.2682 15.754 14.7997 16.245 15.2741H2.7075Z" fill="#6D6D6D"/>
<path d="M9.5 18.092C9.83247 18.0843 10.1515 17.9594 10.4007 17.7391C10.6499 17.5189 10.8132 17.2177 10.8617 16.8887H8.08556C8.13542 17.2266 8.30634 17.5349 8.56652 17.7563C8.8267 17.9776 9.15844 18.0969 9.5 18.092Z" fill="#6D6D6D"/>
</g>
<defs>
<clipPath id="clip0_431_1010">
<rect width="19" height="19" fill="white"/>
</clipPath>
</defs>
</svg>
