<svg width="19" height="19" viewBox="0 0 19 19" fill="none" xmlns="http://www.w3.org/2000/svg">
<g clip-path="url(#clip0_431_1014)">
<path fill-rule="evenodd" clip-rule="evenodd" d="M12.6667 7.12467C12.6667 7.96453 12.333 8.76998 11.7392 9.36385C11.1453 9.95771 10.3399 10.2913 9.5 10.2913C8.66015 10.2913 7.8547 9.95771 7.26083 9.36385C6.66697 8.76998 6.33334 7.96453 6.33334 7.12467C6.33334 6.28482 6.66697 5.47937 7.26083 4.8855C7.8547 4.29164 8.66015 3.95801 9.5 3.95801C10.3399 3.95801 11.1453 4.29164 11.7392 4.8855C12.333 5.47937 12.6667 6.28482 12.6667 7.12467ZM11.0833 7.12467C11.0833 7.5446 10.9165 7.94733 10.6196 8.24426C10.3227 8.54119 9.91993 8.70801 9.5 8.70801C9.08008 8.70801 8.67735 8.54119 8.38042 8.24426C8.08348 7.94733 7.91667 7.5446 7.91667 7.12467C7.91667 6.70475 8.08348 6.30202 8.38042 6.00509C8.67735 5.70816 9.08008 5.54134 9.5 5.54134C9.91993 5.54134 10.3227 5.70816 10.6196 6.00509C10.9165 6.30202 11.0833 6.70475 11.0833 7.12467Z" fill="#6D6D6D"/>
<path fill-rule="evenodd" clip-rule="evenodd" d="M9.5 0.791504C4.69063 0.791504 0.791668 4.69046 0.791668 9.49984C0.791668 14.3092 4.69063 18.2082 9.5 18.2082C14.3094 18.2082 18.2083 14.3092 18.2083 9.49984C18.2083 4.69046 14.3094 0.791504 9.5 0.791504ZM2.375 9.49984C2.375 11.1544 2.93946 12.6776 3.8855 13.8873C4.54989 13.0148 5.40701 12.3077 6.38989 11.8212C7.37277 11.3348 8.4548 11.0822 9.55146 11.0832C10.6339 11.0821 11.7023 11.3282 12.6753 11.8026C13.6483 12.277 14.5001 12.9673 15.166 13.8208C15.8519 12.9211 16.3137 11.871 16.5133 10.7575C16.7128 9.64389 16.6443 8.4988 16.3135 7.41695C15.9826 6.3351 15.3989 5.34758 14.6106 4.53612C13.8223 3.72465 12.8521 3.11256 11.7803 2.75049C10.7085 2.38842 9.56587 2.28678 8.44697 2.45398C7.32808 2.62118 6.26509 3.05242 5.34594 3.712C4.4268 4.37159 3.67793 5.24057 3.16131 6.24703C2.64468 7.2535 2.37514 8.36852 2.375 9.49984ZM9.5 16.6248C7.86438 16.6273 6.27813 16.0646 5.00967 15.032C5.52024 14.3011 6.19981 13.7043 6.99057 13.2925C7.78133 12.8806 8.65987 12.6659 9.55146 12.6665C10.4319 12.6658 11.2998 12.8752 12.0832 13.2772C12.8665 13.6793 13.5425 14.2624 14.0553 14.9782C12.7769 16.0443 11.1645 16.6272 9.5 16.6248Z" fill="#6D6D6D"/>
</g>
<defs>
<clipPath id="clip0_431_1014">
<rect width="19" height="19" fill="white"/>
</clipPath>
</defs>
</svg>
